<?xml version="1.0" encoding="UTF-8"?>
<svg version="1.1" viewBox="0 0 1600 940" width="1280" height="1280" xmlns="http://www.w3.org/2000/svg">
<path transform="translate(0)" d="m0 0h1600v940h-1600z" fill="#27343B"/>
<path transform="translate(1089,150)" d="m0 0h22l19 5 16 8 10 8 10 10 9 13 8 15 9 27 4 23 2 24v18l-2 26-4 27-8 33-7 21-3 10-10 25 46-12 100-27h5l1 1 5-16 4-17 5-17 7-28 5-17 14-54 4-15 15-55 17-10 24-14 4 1 18 10 4 3-4 17-12 45-4 16-4 14 12-6 16-9 5 1 21 12v66l6 1 20 12v51l-23 13-3 1v55l-22 13-12 7h-2v4l11 7 22 12 10 6v2l-20 11-17 10-16 10-10 5h-4v2l-9 5-4 2h-4l2 10 5 16 19 7 35 9 52 14 53 14 37 10 2 1v298h-528l-24-7-41-11-97-26-52-14-12-5-13-7-13-8v-2l21-12 20-12 28-16 22-13 6-4-5-4-24-13-9-5-7-4v-55l-25 14-10 6-62 36-5 1-23-13v-40l6-21 6-23 7-27 6-21 6-23 8-31 6-21 7-27 4-15 7-26 5-17 41-24 5 2 11 6h2l1-14 5-33 7-28 9-30 9-21 10-23 10-19 13-22 12-18 13-16 10-13 11-11 7-8 8-7 14-11 13-10 11-6 16-8 16-6 12-3z" fill="#3A4A51"/>
<path transform="translate(796,542)" d="m0 0 1 2-6 23-5 17-7 27-10 38-6 21-6 23-8 31-1 2-1 40 5 2 12 7 6 3 5-1 20-12 11-6 14-8 20-12 11-6 19-11h2l1 11v41l1 3 11 6 23 13 10 6-4 4-25 15-28 16-29 17-10 6h-2v2l5 2 15 9 15 7 29 8 53 14 29 8 38 10 62 17 6 2v1h-1072v-185l9-3 43-11 59-16 112-30 108-29 56-15 49-13 329-88z" fill="#3A4A50"/>
<path transform="translate(1337,501)" d="m0 0 4 5 1 2v6l4 2 4-4 4 1 2 2-1 7-2 3-4 1 4 4 7 3 8 1v6l11 1 6 4 5 6 7 20 7 24v11l-2 8v4l32 6 82 17 3 1-1 5-7 17-11 22-12 18-10 14-9 11-11 12-9 9-8 7-16 13-8 6-14 9h-6l2-8-3-4-6-3-3-4-6-17-6-18-5-12-4-5v-16l2-17 1-18 6-12 9-11 2-5 1-13-14 7-7 2h-24l-8-2-9-4 1 4 1 19 3 25v7h-1l-1-6-3 19-2 15-5 27-3 9-3 2-17-1-9 2-11 6-2 4h-2v12l2 6 3 1v2l4 2 7 4v2h3v2l4 1v2l4 1 2 1v2l5 2 11 8 5 3v2h3v2l4 1 3 2v2l4 1v3l-12 4-12 5-26 8-24 6-24 5h-8l-12-16-8-12-19-28-13-18-15-22-14-20-10-15-12-17-7-10-11-16-12-17 1-3 12-7 11-6 27-16 28-16 13-8 25-14 10-6 28 5 48 10 15 3 1-8 3-17 4-14 4-9 6-5 10-4 7-1v-6h-7l-4-1-3-7-1-8-1-5 2-5 1-8z" fill="#4A6660"/>
<path transform="translate(1070,236)" d="m0 0h23l13 4 8 4 23 13 8 7 8 9 6 10 6 14 4 18 1 10v26l-3 24-5 23-9 27-11 24-5 10-5 7-10 6-35 20-15 9-25 14-13 8-20 11-8 5-6-1-25-14-11-9-9-12-4-8-7-21-2-18v-28l3-27 4-15 6-21 4-9 4-11 4-9 5-9 9-16 13-19 13-15 14-14 13-10 11-7 8-4 12-4z" fill="#97E3AE"/>
<path transform="translate(1598,327)" d="m0 0h2v315l-17-4-52-14-42-11-74-20-13-5-4-10-4-14 1-4 6-1 8-4 3-1v-2l10-4 29-17 15-9 11-6h2v-2l-5-2-19-11-12-6-9-6 2-4 23-13 12-7 1-55 17-10 7-4h2v-50h1l1 8 9-3 44-12z" fill="#27343A"/>
<path transform="translate(856,450)" d="m0 0 5 2 12 7 9 5-7 28-7 26-4 15-6 23 12-6 13-8 5-1 23 13v66l6 1 21 12v51l-25 14-1 55-15 9-23 13-2-1v-52l-25 14-10 6-62 36-5 1-23-13v-40l6-21 6-23 7-27 6-21 6-23 8-31 6-21 7-27 4-15 7-26 5-17 24-14z" fill="#B5EBC5"/>
<path transform="translate(1416,162)" d="m0 0 4 1 18 10 4 3-4 17-12 45-4 16-4 14 12-6 16-9 5 1 21 12v66l6 1 20 12v51l-23 13-3 1v55l-22 13-16 9-2-1 1-52-14 7-22 13-43 25-15 9-6 3-5-2-20-11v-41l10-39 3-9 4-17 5-17 7-28 5-17 14-54 4-15 15-55 17-10z" fill="#B5EBC5"/>
<path transform="translate(1084,187)" d="m0 0h9l15 2 10 4 14 7 8 8v2h2l11 14 7 14 6 18 4 20 1 11v36l-2 2-2-15-4-16-8-17-8-10-8-8-18-10-10-6-13-5-5-1h-23l-17 6-13 7-14 10-13 12-9 9-9 11-16 24-6 11-6 12-6 13-7 21-5 17-3 11-3 27v28l2 18 5 16 8 16 9 11 10 7 2 1v57l-1 7-7 5-9 5-8 5-13 8-6-1-11-6-7-6-4-2-1 23h-1v-66l-5-2-18-10h-6l-4-15v-7l8-3 16-4 3-1-4-22-1-7v-40l3-25 6-29 8-26 5-14 8-20 10-19 3-4 2-6 20-30 10-13 9-11 16-16 8-7 10-9 6-3 17-11 15-7 13-4z" fill="#4A6660"/>
<path transform="translate(909,754)" d="m0 0 7 1 16 9 14 8 11 6 7-1 20-12 6 2 38 22v2l-23 13h-2v2l6 2 22 13 18 11 18 10 15 9-1 3-22 13-11 7h-7l-16-10-19-10-13-8-18-10-10-6-4-1-29 17-18 11-2 2 210 57 24 7-5 4-14 8-7 5h-48l-24-7-41-11-97-26-52-14-12-5-13-7-13-8v-2l21-12 20-12 28-16 22-13 6-4-5-4-24-13-9-5-7-4 2-1v-2l25-14z" fill="#27343A"/>
<path transform="translate(1096,278)" d="m0 0h17l8 7 6 10 2 9 2 5 1 6v39l-5 26-10 30-8 18-9 17-12 18-8 10-2 3h-2l-2 4-11 11-15 11-13 6-13 3h-8l-7-3-8-11-5-14-3-18v-13-4l1-14 3-19 6-21 5-15 9-20 6-12 11-17 12-16 4-5 8-7 10-9h2l1-3 11-6 12-5z" fill="#F2FBF3"/>
<path transform="translate(1089,150)" d="m0 0h22l19 5 16 8 10 8 10 10 9 13 8 15 9 27 4 23 2 24v18l-2 26-4 27-8 33-7 21-3 10-10 24h-3l1 5-2 3-1-4-14 3-3 1 1-5 9-20 9-27 5-23 3-24 1-28v-36l-2-17-5-21-6-15-5-10-8-10-2-4h-2l-7-8-10-6-10-4-9-3-11-1h-9l-15 2-18 6-15 8-12 8-10 6-12 12-8 7-12 12-13 17-10 14-12 19-2 2-2 7-4 5-8 16-6 15-6 16-5 16-5 17-6 32-2 18v40l4 24 1 5-10 4-17 4v7l4 16-9 6-11 6-6 2 8-31 4-16 9-33 3-13-8-4 1-7 4-31 5-24 7-25 6-20 9-21 10-23 10-19 13-22 12-18 13-16 10-13 11-11 7-8 8-7 14-11 13-10 11-6 16-8 16-6 12-3z" fill="#384E4B"/>
<path transform="translate(1385,622)" d="m0 0h2v13l-4 8-8 10-5 10-1 18-2 17v16l4 5 7 18 6 19 5 12 4 3 5 3 2 4-3 7 8 2 27 13 20 9 34 16 10 4-6 7-7 7-16 12-21 14-19 11-7-1-15-10-18-13-14-10-13-9-17-12-10-7-2-1v-2l-4-2-3-1v-2h-3v-2l-5-2-16-11v-2l-6-2v-2l-4-1v-2h-3v-2l-4-1-7-5-4-5-2-4v-9l1-3h2l2-5 14-7 13-1 10 1 3-1 5-26 3-15 4-31 2 1-3-25-1-23 9 3 8 2h24l12-4z" fill="#27343B"/>
<path transform="translate(1598,327)" d="m0 0h2v211l-6-2-22-13-9-5 5-4 18-12-5-4-15-9-18-10-4-1-22 13-3 1-24-13-16-10-8-3 1-56 17-10 7-4h2v-50h1l1 8 9-3 44-12z" fill="#3A4A51"/>
<path transform="translate(1401,618)" d="m0 0 16 3 42 8 57 12 3 1-1 5-7 17-11 22-12 18-10 14-9 11-11 12-9 9-8 7-16 13-8 6-14 9h-6l2-8-3-4-6-3-3-4-6-17-6-18-5-12-4-5v-16l2-17 1-18 4-8 2 4 2 1v-3l11-6 3-1 2-6 3-10 4-15z" fill="#49655F"/>
<path transform="translate(1078,213)" d="m0 0 12 1 11 2 16 8 8 7 8 8 9 17 1 4-10-4-15-9-14-7-11-3h-23l-17 6-13 7-14 10-13 12-9 9-9 11-16 24-6 11-6 12-6 13-7 21-5 17-3 11-3 27v28l2 18 5 16 8 16 9 11 10 7 2 1v49l-1 7-7-1-13-2-12-6-14-10-7-8-8-11-8-17-4-12 7-3 14-4-6-25-2-17v-26l3-29 9-36 3-7 2-8 3-5 7-20 12-22 3-5 11-18 5-8 5-5 8-9 7-8 12-12 11-9 10-7 14-8 18-7 8-2z" fill="#517467"/>
<path transform="translate(1137,258)" d="m0 0 4 2 10 10 7 11 7 16 4 18 1 10v26l-3 24-5 23-9 27-11 24-5 10-5 7-10 6-35 20-15 9-25 14-13 8-20 11-8 5-6-1-5-3 1-5 8-16 2-6 8 2h8l16-4 13-7 14-11 10-10 1-2h2l2-4 10-13 13-21 8-16 8-20 7-22 5-26v-39l-2-10-2-7-5-10-6-7v-2l10 4 2-6 9-17z" fill="#7EBF94"/>
<path transform="translate(1337,501)" d="m0 0 4 5 1 2v6l4 2 4-4 4 1 2 2-1 7-2 3-4 1 4 4 7 3 8 1v6l11 1 6 4 5 6 7 20 7 24v11l-9 36-4 8-6 4-6 3h-2v3l-3-1v-6l8-10 4-8 1-13-14 7-7 2h-24l-8-2-7-3-3-2-1-7-10 9-10 8-12 10-4 2h-9l-11-1-1-2 5-5 11-4 2-3-7-1-1-3 19-7 6-4 10-13 3-7 4-21 4-14 4-9 6-5 10-4 7-1v-6h-7l-4-1-3-7-1-8-1-5 2-5 1-8z" fill="#699F7C"/>
<path transform="translate(815,474)" d="m0 0 1 2 4 1 16 9 3 2-1 8-14 52-20 75-30 112-2 15v28l-2 1-23-13v-40l6-21 6-23 7-27 6-21 6-23 8-31 6-21 7-27 4-15 7-26z" fill="#7DBF93"/>
<path transform="translate(1375,186)" d="m0 0 1 2 5 1 17 10 2 3-8 29-15 56-12 45-22 82-10 38-1 39-11-6-13-7v-41l10-39 3-9 4-17 5-17 7-28 5-17 14-54 4-15 6-22z" fill="#7DBF93"/>
<path transform="translate(1430,434)" d="m0 0h3v52l3 1v2l11 7 22 12 10 6v2l-20 11-17 10-16 10-10 5h-4v2l-9 5-4 2-6 1-5-13-7-6-13-3v-6h-8v-1l8-1 4-3 1 6 5 2h7l15-10v-9l-1-2v-13l-4-4-8-4-3-3v-2h-11l-6 4-2 4h-1l1-7 3-4-8-2-12-1-1-2 52-30 24-14z" fill="#394A50"/>
<path transform="translate(1070,236)" d="m0 0h23l13 4 8 4 23 13 1 3-10 19-2 4-5-1-5-2-3-1h-17l-12 4-11 6-4 2-5 5-10 9-6 5-10 13-5 7-5-5-5-9-7-9-2-3-5-1-12-7-3-1 1-4 12-14 14-14 13-10 11-7 8-4 12-4z" fill="#96E2AD"/>
<path transform="translate(979,526)" d="m0 0 16 8 15 9 17 10 7 4 1 20 4 4 23 13 3 2 1 23 5 2 15 8 9 6 1 20-2 1-26-15-22-12-9-6v-4l-5 1-20-11-19-11-12-7-2-3z" fill="#27343B"/>
<path transform="translate(1159,445)" d="m0 0 1 3-3 9-7 16 1 3 9 6v3l-7 5-8 4-9 5-8 5-10 5-9 5-19 12-9 5-7 3-6 4h-3v2l-9 6h-5v2l-13 7-1 1h-6l-18-10-10-6 4-3 18-10 14-8 19-11 16-9 30-18 11-6 10-6 7-4 7-11 2-5 7-2z" fill="#485B63"/>
<path transform="translate(1193,543)" d="m0 0 14 8 16 9v2l-18 10-7 5-5 2h-3v2l-20 11-7 5-8 4-20 11-8 6-7 3-18 11-5 3-5-1-15-9-11-6 1-3 14-8h3l1-3 10-5h2l1-3 7-3 12-7h3v-2l11-6 2 1v-3l4-1 2-3 9-4 18-10 10-6 14-8z" fill="#475A63"/>
<path transform="translate(1162,505)" d="m0 0 14 7 13 7 3 4-15 9-19 11-8 4-5 3-18 11-8 4-4 3-5 2-6 4h-4v2l-10 6-6 3-10 6-9 5-5-2-24-14 1-3 28-16 3-2h4l1-3 3-1 1-2 14-7 8-5 17-10 13-7 17-10 13-8z" fill="#475A63"/>
<path transform="translate(1520,541)" d="m0 0h6l2 1v2l5 2 19 10 17 10 18 10 13 8v22l-17-4-75-20-35-10-2-2 11-7 26-15z" fill="#3A4A51"/>
<path transform="translate(902,513)" d="m0 0h3l10 24 5 9 6 8 7 8 15 10 10 5 13 2 6 1 1-6h1v8l-1 7-7 5-9 5-8 5-13 8-6-1-11-6-7-6-4-2-1 23h-1v-66l-5-2-18-10h-6l-4-15v-7l8-3z" fill="#47605E"/>
<path transform="translate(991,296)" d="m0 0 5 1 18 11 2 1-2 4-15 25-2 3-5-2-2-1v-2l-6-2-6-3h-2l16 9 3 2-1 6-11 25-7 21-6 21-6-2-8-4-8-5-2-1 1-8 5-19 3-11 4-9 4-11 4-9 5-9 9-16z" fill="#B5EBC5"/>
<path transform="translate(1385,622)" d="m0 0h2v13l-4 8-8 10-5 10-1 18-2 17v16l4 5 7 18 6 19v4l-9 2-6-11-11-21-8-16-2-6-3-14v-62l17-1 16-5z" fill="#1B2429"/>
<path transform="translate(1414,279)" d="m0 0 5 2 12 7 2 2v93l-5-2-18-10-6 1-14 8h-2l4-17 8-31 11-42z" fill="#69A07D"/>
<path transform="translate(854,567)" d="m0 0 12 6 6 4 1 10v66l-1 18-5-2-17-10-6 1-14 8h-2l2-11 10-37 5-21 5-18z" fill="#69A07D"/>
<path transform="translate(1348,534)" d="m0 0 6 1 1 1v8l-5 3-7 2v19l-6 20 1 2 3 22 2 15v3h-7l-9-4-3-2-1-7-10 9-10 8-12 10-4 2h-9l-11-1-1-2 5-5 11-4 2-3-7-1-1-3 19-7 6-4 10-13 3-7 4-21 4-14 4-9 6-5 10-4 7-1z" fill="#838D79"/>
<path transform="translate(1024,261)" d="m0 0m-1 1m43 0h1l1 31-10 8-13 13-10 13-3 3-6-9-7-11-5-6-5-1-12-7-3-1 1-4 12-14 14-14 2 1-3 4 5 1 14 9 5 1 8-7z" fill="#96E2AE"/>
<path transform="translate(1345,483)" d="m0 0 15 1 8 3-2 4v3l7-5h7l4 1 4 5 10 5 2 3v13l1 2v9l-10 7-6 4h-7l-6-3-1-5-3 3h-11l-8-5-1-3h5l2-5v-5l-2-2-5 1-2 3-4-2-1-1v-7l-4-5-2 5-3-4 2-1-1-5 3-7 6-5z" fill="#1B2429"/>
<path transform="translate(1341,725)" d="m0 0 4 4 4 8 9 14 6 11v2h2l2 5h2l1-3h2l1-3 4-1 4 11-1 27-4 6-6 2-5-3-2-6 5-5h7l-1-9-4-6-3-3 1-5-6-2-27-12v-2l-3 3-4 10-3 11-2 3h-8l-18-8-13-5-4-5 1-6 4-4h9l6 2 10-1v-3l8-1 5 3 7 1 5-8 5-13 1-5z" fill="#475B63"/>
<path transform="translate(1074,236)" d="m0 0h19l13 4 8 4 23 13 1 3-10 19-2 4-5-1-5-2-3-1h-17l-6 1 4-23 1-5-23-14z" fill="#96E3AE"/>
<path transform="translate(1378,542)" d="m0 0 5 1 7 8 7 20 7 24v11l-9 36-4 8-6 4-6 3h-2v3l-3-1v-6l8-10 4-8v-38l-5-12 2-11v-17l-2-8-3-5z" fill="#848E7A"/>
<path transform="translate(942,443)" d="m0 0 16 8 8 5 1 23 1 7h-3l5 3 5 17 7 14 10 11 3 3-6-2-17-10-9-8-9-13-5-11-5-16-2-18z" fill="#B3EAC4"/>
<path transform="translate(991,468)" d="m0 0h1l4 18 5 13 6 9-4 10-8 15-5-3-9-10-7-14-4-13 1-5 10-9 8-8h2z" fill="#96E3AE"/>
<path transform="translate(1348,534)" d="m0 0 6 1 1 1v8l-5 3-10 3-5 8-12 41-5 10-9 10-17 17-10 5-12 3h-4l2-4 9-4 6-3 1-2-7-1-1-3 19-7 6-4 10-13 3-7 4-21 4-14 4-9 6-5 10-4 7-1z" fill="#B8ECC7"/>
<path transform="translate(1329,628)" d="m0 0 7 1 6 1 20 1v1h-17l1 41v21l3 16 9 19 10 18 6 11 2 5-5 2-7-10v-2l-4-2-3-9-11-21-4-17-4-32-2-21-6-8-1-3z" fill="#27343B"/>
<path transform="translate(1325,625)" d="m0 0 6 2-2 1 1 12 4 8 3 3 4 39 4 24 4 11 11 21 1 5 4 4 6 9 2 2-3 3h-2l-2-5h-2l-6-10-5-9-6-9-5-10-3-3-5-12-3-16-2-15-1-13-2-19z" fill="#28363C"/>
<path transform="translate(1430,434)" d="m0 0h3v52l-2 1-23-13-1-27z" fill="#69A07D"/>
<path transform="translate(1341,725)" d="m0 0 4 4 4 8 9 14 6 11v2h2l2 5h2l1-3h2l1-3 4-1 4 11-1 27-4 6-6 2-5-3-2-6 5-5h7l-1-9-4-6-3-3 1-5-6-2-27-12v-2h-3l1-5 8-18z" fill="#49645F"/>
<path transform="translate(956,367)" d="m0 0 6 2 8 5 10 5-3 12-7 24-6-2-8-4-8-5-2-1 1-8 5-19 3-8z" fill="#B5EBC5"/>
<path transform="translate(993,293)" d="m0 0 1 2 5 1 11 7 5 1 10 13 6 11 1 3-12 20-4 7-4-2-9-7-7-5 1-4 9-16 7-11 3-4-6-2-11-7-7-4z" fill="#96E2AE"/>
<path transform="translate(870,722)" d="m0 0h2l1 11v41l-3 1-22-13-1-27z" fill="#699F7C"/>
<path transform="translate(1015,269)" d="m0 0 6 1 12 7 6 4-2 5-8 8-8 11-2 2-4-1-1-2-5-1-12-7-3-1 1-4 12-14z" fill="#B5EBC5"/>
<path transform="translate(945,405)" d="m0 0 6 2 8 6 10 5v10h2v6l-3 1-1 16-4 1-11-6-7-5-3-1v-12l2-18z" fill="#B6ECC6"/>
<path transform="translate(975,330)" d="m0 0 5 1 10 5v2l5 2 1 4 4 2 16 12-5 12-6 14-3 1-22-4 1-5 9-21 5-13-5-2-15-9z" fill="#96E3AE"/>
<path transform="translate(747,726)" d="m0 0 1 4 5 2 18 10 1 21v15l-2 1-23-13z" fill="#689E7C"/>
<path transform="translate(1308,442)" d="m0 0 16 8 7 4v36l-5-2-18-10z" fill="#699F7C"/>
<path transform="translate(902,513)" d="m0 0h3l6 15v5l-4 6-6 2 5 5 1 6-12-6-7-4h-6l-4-15v-7l8-3z" fill="#465F5E"/>
<path transform="translate(1132,411)" d="m0 0h8l16 3-1 5-6 15-7 15-5-2-9-7-6-5 3-9 6-14z" fill="#95E2AD"/>
<path transform="translate(1163,376)" d="m0 0h3l-1 10-7 25-2 1-10-2-13-3 3-11 4-14 5-2z" fill="#95E1AD"/>
<path transform="translate(1327,672)" d="m0 0 2 2 4 28 3 12 7 15-1 5-5 13-6 9-9-2-3-2 2-12 8-34v-8l-2-10z" fill="#27343B"/>
<path transform="translate(1040,249)" d="m0 0 7 1 5 4 14 7-1 3-13 9-8 7-5-1-16-10-3-1 2-4 5-6z" fill="#B5EBC5"/>
<path transform="translate(1168,339)" d="m0 0h1v23l-2 10-9 3-12 3h-5l3-22 1-3 22-13z" fill="#95E2AD"/>
<path transform="translate(847,595)" d="m0 0h1v62l-9 6-9 5h-2l2-11 10-37 5-21z" fill="#3B4D52"/>
<path transform="translate(1119,438)" d="m0 0 4 1 16 12-1 6-6 9-15 9-3-1-6-11-1-3 10-18z" fill="#95E2AD"/>
<path transform="translate(1066,262)" d="m0 0h1l1 31-10 8-8 8h-1l-5-23-2-6 10-8z" fill="#96E3AE"/>
<path transform="translate(942,443)" d="m0 0 16 8 8 5 1 23 1 7-5-2-18-11-2-9-1-8z" fill="#B5EBC5"/>
<path transform="translate(1407,307)" d="m0 0h1v63l-18 10h-2l4-17 8-31z" fill="#27353B"/>
<path transform="translate(1165,307)" d="m0 0 3 3 1 5v22l-12 6-12 7v-24l5-5 11-10z" fill="#95E2AD"/>
<path transform="translate(1121,249)" d="m0 0 5 2 11 6 1 3-10 19-2 4-5-1-5-2-8-3 3-10 5-17z" fill="#96E2AE"/>
<path transform="translate(1337,501)" d="m0 0 4 5 1 2v6l4 2 4-4 4 1 2 2-1 7-2 3-4 1 4 4 7 3 8 1 1 8-1 2-10 1-3-1-1-8-5-1v1h-7l-4-1-3-7-1-8-1-5 2-5 1-8z" fill="#828B78"/>
<path transform="translate(1156,280)" d="m0 0 3 3 6 14v7l-12 11-8 7-2-3-3-12v-6l9-12z" fill="#95E2AD"/>
<path transform="translate(1065,238)" d="m0 0h6l20 12v2l-13 5-7 4-6-2-18-10-1-2 3-3z" fill="#B5EBC5"/>
<path transform="translate(997,492)" d="m0 0 2 2 4 8 4 6-4 10-8 15-5-3-9-10-2-4 5-5 8-11z" fill="#96E3AE"/>
<path transform="translate(1140,261)" d="m0 0 4 2 7 7 4 6-2 5-5 5-9 12-3-1-8-10 1-6 10-18z" fill="#95E2AD"/>
<path transform="translate(866,520)" d="m0 0 1 3 10-3 5 20 1 3-9 6-11 6-6 2 8-31z" fill="#3A4B51"/>
<path transform="translate(1376,762)" d="m0 0h2l4 11-1 27-4 6-6 2-5-3-2-6 5-5h7l-1-9-4-6-3-3 1-5-6-2-2-2 5-2 2 4h2l1-3h2l1-3z" fill="#43595B"/>
<path transform="translate(1329,628)" d="m0 0 7 1 2 3 4 50 4 28 4 12 12 23 10 17 1 3-4-2-5-8v-2l-4-2-3-9-11-21-4-17-4-32-2-21-6-8-1-3z" fill="#1B2429"/>
<path transform="translate(1009,511)" d="m0 0 6 2 9 4-3 13-15 9-6-1-4-2 2-5 10-18z" fill="#95E2AD"/>
<path transform="translate(1336,588)" d="m0 0 2 2 3 22 2 15v3h-7l-9-4-2-2v-9l3-4 6-18z" fill="#95E1AD"/>
<path transform="translate(1074,236)" d="m0 0h19l13 4 8 4 7 4v2l-27 1-22-13z" fill="#B3EBC4"/>
<path transform="translate(1326,680)" d="m0 0h1l2 15 1 3v8l-8 34-3 11-8 1-1 3v-9l5-2 5-26 3-15z" fill="#27343B"/>
<path transform="translate(1159,445)" d="m0 0 1 3-3 9-7 16-2-3v-2l-9-3-4-1 1-5 5-10 7-2z" fill="#465E5E"/>
<path transform="translate(1393,775)" d="m0 0h6l1 3-4 10-1 11-4 4-7 3-3-1 2-4 2-15 4-8z" fill="#1B2429"/>
<path transform="translate(1104,464)" d="m0 0h2l6 10 1 3-17 10-5 1-1-4 3-6 9-11z" fill="#94E1AC"/>
<path transform="translate(1327,672)" d="m0 0 2 2 4 28 3 12 7 15v2l-3-1-9-18-5 19-5 21h-2l2-12 8-34v-8l-2-10z" fill="#1C252A"/>
<path transform="translate(1383,578)" d="m0 0 3 4 6 13v21l-4 16h-1l-1-20v-15l-5-12z" fill="#B9ECC8"/>
<path transform="translate(911,530)" d="m0 0 2 3 7 13 5 6-2 4-17-7-3-5-3-4 7-2z" fill="#4A6660"/>
<path transform="translate(856,450)" d="m0 0 5 2 11 6v2l-6-2-8-4-6 2-6 5-17 9-6 4-2 3-5-1v-3l25-14z" fill="#DFF2E4"/>
<path transform="translate(1377,786)" d="m0 0 3 1v12l-3 7-6 2-5-3-2-6 5-5h8z" fill="#485C61"/>
<path transform="translate(1446,253)" d="m0 0 5 1 20 12v1h-5l-16-8-3-1-19 10-4-1 4-4z" fill="#E9F8EC"/>
<path transform="translate(873,497)" d="m0 0 2 1 1 12 1 3v7l-5 3h-5l1-9 4-16z" fill="#28373D"/>
<path transform="translate(1045,246)" d="m0 0 2 1 5 4 17 9 1 30-3 2-1-30-16-8-3-3-6-2z" fill="#95E0AC"/>
<path transform="translate(1337,501)" d="m0 0 2 3 1 23 2 6 5 1v1h-9l-3-7-1-8-1-5 2-5 1-8z" fill="#BCEBCA"/>
<path transform="translate(1380,586)" d="m0 0h2l5 11v15l-2 4-6-18v-10z" fill="#3B504E"/>
<path transform="translate(1345,483)" d="m0 0 15 1v1l-10 1-7 4-2 7-4 5-2 5-3-4 2-1-1-5 3-7 6-5z" fill="#28353B"/>
<path transform="translate(886,541)" d="m0 0 6 2 17 10 1 2-4-1-16-7-9 1-20 9v-2l10-6 11-6z" fill="#E7F8EA"/>
<path transform="translate(1376,762)" d="m0 0h2l4 11-1 27-3 3 1-4v-11l-1-3 1-5-3-8-2-4-3-1 2-1 1-3z" fill="#384C4D"/>
<path transform="translate(1348,534)" d="m0 0 6 1 1 1v8l-5 3-9 2-2-5 10-2z" fill="#90D9A7"/>
<path transform="translate(1416,162)" d="m0 0 4 1 18 10 4 4h-5l-10-6-10-5-11 5h-2v-2z" fill="#DEF3E3"/>
<path transform="translate(1281,760)" d="m0 0 1 2h2l5 6 17 6 11 5h8l-1 3h-8l-18-8-13-5-4-5z" fill="#394B4F"/>
<path transform="translate(995,491)" d="m0 0h2l-1 4-10 15-5 6-3-1 4-7 7-9z" fill="#7EC094"/>
<path transform="translate(990,466)" d="m0 0h1v5l-8 7-9 9-4 3-2-3 8-8 8-7 4-5z" fill="#7EC094"/>
<path transform="translate(1041,281)" d="m0 0h2l3 8 3 14v6l-3 2-3-13-2-12z" fill="#7EC094"/>
<path transform="translate(989,439)" d="m0 0h2l-1 5-5 2-13 8-5 2v-4l10-6z" fill="#7EC094"/>
<path transform="translate(1371,529)" d="m0 0h1l1 6 9 3v4l-14-2v-6h-8v-1l8-1z" fill="#35464B"/>
<path transform="translate(994,410)" d="m0 0h2v5h-3l-17 3h-6v-2z" fill="#7EC094"/>
<path transform="translate(1197,283)" d="m0 0h1v18l-3 7-5 1v-5h-2v-2l4-2h4l-3-2 1-4 1-3 1 1z" fill="#647A76"/>
<path transform="translate(1092,251)" d="m0 0 4 1-5 27-3 1 1-11z" fill="#7EC094"/>
<path transform="translate(1017,308)" d="m0 0 5 5 6 10 4 6-1 3h-2l-12-20z" fill="#7EC094"/>
<path transform="translate(1036,517)" d="m0 0h5l-5 5-10 5h-2l2-6 2-3z" fill="#93DEAA"/>
<path transform="translate(1116,250)" d="m0 0h3l-1 8-7 19h-3l3-10z" fill="#7EC094"/>
<path transform="translate(1044,628)" d="m0 0 2 3 4 4v2l-4 4-1 5h-1l-2-7-4-3 5-5z" fill="#8CD4A3"/>
<path transform="translate(1331,628)" d="m0 0 5 1v18l-4-5-1-3z" fill="#28363C"/>
<path transform="translate(980,378)" d="m0 0 9 1 10 2h6l-1 4-24-4z" fill="#7DBF93"/>
<path transform="translate(996,342)" d="m0 0 4 1 9 6 4 3v2h4l-1 4-4-2-9-7-7-5z" fill="#7EC094"/>
<path transform="translate(1327,718)" d="m0 0h1l-1 9-6 25h-2l2-12 5-21z" fill="#1B2429"/>
<path transform="translate(1342,536)" d="m0 0h7v6l-7 2-4-1 2-6z" fill="#384D4C"/>
<path transform="translate(1067,261)" d="m0 0h2l1 29-3 2z" fill="#7EC094"/>
<path transform="translate(1473,332)" d="m0 0 5 1 19 11v2l-5-1-10-6-9-5z" fill="#E0F4E5"/>
<path transform="translate(1211,318)" d="m0 0 2 3 4 5-4 4-2 4-3-6-3-1v-2l5-5z" fill="#8ED4A4"/>
<path transform="translate(1406,370)" d="m0 0 6 1v2l-8 2-8 5-6 1v-2z" fill="#DFF3E4"/>
<path transform="translate(913,620)" d="m0 0 6 2 18 11v2l-5-2-10-6-10-5z" fill="#E5F8E9"/>
<path transform="translate(846,658)" d="m0 0 6 1v2l-7 1-10 6-5 1v-2z" fill="#DCF4E2"/>
<path transform="translate(1348,534)" d="m0 0 6 1 1 1v8h-4l-3-9z" fill="#B6ECC6"/>
<path transform="translate(957,366)" d="m0 0 4 1 19 10v2l-6-2-11-6-6-4z" fill="#96E3AE"/>
<path transform="translate(1399,172)" d="m0 0 3 1-7 6-9 3 2-4z" fill="#E2F3E5"/>
<path transform="translate(944,471)" d="m0 0 1 2 5 2 14 9-2 1-15-8-2 1z" fill="#91DCA9"/>
<path transform="translate(1315,742)" d="m0 0 1 3v4l2 2-7 1-1 3v-9l5-2z" fill="#344647"/>
<path transform="translate(856,450)" d="m0 0 5 2 11 6v2l-6-2-8-4-4-1z" fill="#E3F7E8"/>
<path transform="translate(1234,457)" d="m0 0h1l2 6 2 2-3 2-2 4-3-5v-3l2-2z" fill="#D9F3E0"/>
<path transform="translate(976,460)" d="m0 0 4 5 2 2-2 2h-3l-1 4-1-5-4-2 5-1z" fill="#F1FBF2"/>
<path transform="translate(1374,536)" d="m0 0 8 2v4l-10-1-1-2z" fill="#2A393E"/>
<path transform="translate(1386,597)" d="m0 0h1v15l-2 4-2-5 1-4h2z" fill="#5D6E62"/>
<path transform="translate(1404,610)" d="m0 0 2 1-1 8-4-1 1-6h2z" fill="#384E4C"/>
<path transform="translate(1086,487)" d="m0 0 2 4-8 5-2-1 6-6h2z" fill="#93DFAB"/>
<path transform="translate(1367,489)" d="m0 0h5l-5 5-2 4h-1l1-7z" fill="#678873"/>
</svg>
